HIERARCHY
ROOT hip
{
  OFFSET 0 0 0
  CHANNELS 6 Xposition Yposition Zposition Zrotation Yrotation Xrotation
  JOINT abdomen
  {
    OFFSET 0 20.6881 -0.73152
    CHANNELS 3 Zrotation Xrotation Yrotation
    JOINT chest
    {
      OFFSET 0 11.7043 -0.48768
      CHANNELS 3 Zrotation Xrotation Yrotation
      JOINT neck
      {
        OFFSET 0 22.1894 -2.19456
        CHANNELS 3 Zrotation Xrotation Yrotation
        JOINT head
        {
          OFFSET -0.24384 7.07133 1.2192
          CHANNELS 3 Zrotation Xrotation Yrotation
          JOINT leftEye
          {
            OFFSET 4.14528 8.04674 8.04672
            CHANNELS 3 Zrotation Xrotation Yrotation
            End Site
            {
              OFFSET 1 0 0
            }
          }
          JOINT rightEye
          {
            OFFSET -3.6576 8.04674 8.04672
            CHANNELS 3 Zrotation Xrotation Yrotation
            End Site
            {
              OFFSET 1 0 0
            }
          }
        }
      }
      JOINT rCollar
      {
        OFFSET -2.68224 19.2634 -4.8768
        CHANNELS 3 Zrotation Xrotation Yrotation
        JOINT rShldr
        {
          OFFSET -8.77824 -1.95073 1.46304
          CHANNELS 3 Zrotation Xrotation Yrotation
          JOINT rForeArm
          {
            OFFSET -28.1742 -1.7115 0.48768
            CHANNELS 3 Zrotation Xrotation Yrotation
            JOINT rHand
            {
              OFFSET -22.5879 0.773209 7.07136
              CHANNELS 3 Zrotation Xrotation Yrotation
              JOINT rThumb1
              {
                OFFSET -1.2192 -0.487915 3.41376
                CHANNELS 3 Zrotation Xrotation Yrotation
                JOINT rThumb2
                {
                  OFFSET -3.37035 -0.52449 3.41376
                  CHANNELS 3 Zrotation Xrotation Yrotation
                  End Site
                  {
                    OFFSET -1.78271 -1.18214 1.43049
                  }
                }
              }
              JOINT rIndex1
              {
                OFFSET -7.75947 0.938293 5.60832
                CHANNELS 3 Zrotation Xrotation Yrotation
                JOINT rIndex2
                {
                  OFFSET -2.54057 -0.884171 1.56538
                  CHANNELS 3 Zrotation Xrotation Yrotation
                  End Site
                  {
                    OFFSET -1.62519 -0.234802 1.16502
                  }
                }
              }
              JOINT rMid1
              {
                OFFSET -8.24714 1.18213 3.41376
                CHANNELS 3 Zrotation Xrotation Yrotation
                JOINT rMid2
                {
                  OFFSET -3.10165 -0.590103 1.0647
                  CHANNELS 3 Zrotation Xrotation Yrotation
                  End Site
                  {
                    OFFSET -2.48547 -0.328903 0.83742
                  }
                }
              }
              JOINT rRing1
              {
                OFFSET -8.82822 0.546677 1.51678
                CHANNELS 3 Zrotation Xrotation Yrotation
                JOINT rRing2
                {
                  OFFSET -2.60934 -0.819778 -0.0198488
                  CHANNELS 3 Zrotation Xrotation Yrotation
                  End Site
                  {
                    OFFSET -2.33842 -0.294052 0.168128
                  }
                }
              }
              JOINT rPinky1
              {
                OFFSET -8.27202 -0.0477905 -0.4584
                CHANNELS 3 Zrotation Xrotation Yrotation
                JOINT rPinky2
                {
                  OFFSET -1.82734 -0.647385 -0.700984
                  CHANNELS 3 Zrotation Xrotation Yrotation
                  End Site
                  {
                    OFFSET -1.69225 -0.51767 -0.607171
                  }
                }
              }
            }
          }
        }
      }
      JOINT lCollar
      {
        OFFSET 2.68224 19.2634 -4.8768
        CHANNELS 3 Zrotation Xrotation Yrotation
        JOINT lShldr
        {
          OFFSET 8.77824 -1.95073 1.46304
          CHANNELS 3 Zrotation Xrotation Yrotation
          JOINT lForeArm
          {
            OFFSET 28.1742 -1.7115 0.48768
            CHANNELS 3 Zrotation Xrotation Yrotation
            JOINT lHand
            {
              OFFSET 22.5879 0.773209 7.07136
              CHANNELS 3 Zrotation Xrotation Yrotation
              JOINT lThumb1
              {
                OFFSET 1.2192 -0.487915 3.41376
                CHANNELS 3 Zrotation Xrotation Yrotation
                JOINT lThumb2
                {
                  OFFSET 3.37035 -0.52449 3.41376
                  CHANNELS 3 Zrotation Xrotation Yrotation
                  End Site
                  {
                    OFFSET 1.78271 -1.18214 1.43049
                  }
                }
              }
              JOINT lIndex1
              {
                OFFSET 7.75947 0.938293 5.60832
                CHANNELS 3 Zrotation Xrotation Yrotation
                JOINT lIndex2
                {
                  OFFSET 2.54057 -0.884171 1.56538
                  CHANNELS 3 Zrotation Xrotation Yrotation
                  End Site
                  {
                    OFFSET 1.62519 -0.234802 1.16502
                  }
                }
              }
              JOINT lMid1
              {
                OFFSET 8.24714 1.18213 3.41376
                CHANNELS 3 Zrotation Xrotation Yrotation
                JOINT lMid2
                {
                  OFFSET 3.10165 -0.590103 1.0647
                  CHANNELS 3 Zrotation Xrotation Yrotation
                  End Site
                  {
                    OFFSET 2.48547 -0.328903 0.83742
                  }
                }
              }
              JOINT lRing1
              {
                OFFSET 8.82822 0.546677 1.51678
                CHANNELS 3 Zrotation Xrotation Yrotation
                JOINT lRing2
                {
                  OFFSET 2.60934 -0.819778 -0.0198488
                  CHANNELS 3 Zrotation Xrotation Yrotation
                  End Site
                  {
                    OFFSET 2.33842 -0.294052 0.168128
                  }
                }
              }
              JOINT lPinky1
              {
                OFFSET 8.27202 -0.0477905 -0.4584
                CHANNELS 3 Zrotation Xrotation Yrotation
                JOINT lPinky2
                {
                  OFFSET 1.82734 -0.647385 -0.700984
                  CHANNELS 3 Zrotation Xrotation Yrotation
                  End Site
                  {
                    OFFSET 1.69225 -0.51767 -0.607171
                  }
                }
              }
            }
          }
        }
      }
    }
  }
  JOINT rButtock
  {
    OFFSET -8.77824 4.35084 1.2192
    CHANNELS 3 Zrotation Xrotation Yrotation
    JOINT rThigh
    {
      OFFSET 0 -1.70687 -2.19456
      CHANNELS 3 Zrotation Xrotation Yrotation
      JOINT rShin
      {
        OFFSET 0 -36.8199 0.73152
        CHANNELS 3 Zrotation Xrotation Yrotation
        JOINT rFoot
        {
          OFFSET 0.73152 -45.1104 -5.12064
          CHANNELS 3 Zrotation Xrotation Yrotation
          End Site
          {
            OFFSET -1.1221 -3.69964 12.103
          }
        }
      }
    }
  }
  JOINT lButtock
  {
    OFFSET 8.77824 4.35084 1.2192
    CHANNELS 3 Zrotation Xrotation Yrotation
    JOINT lThigh
    {
      OFFSET 0 -1.70687 -2.19456
      CHANNELS 3 Zrotation Xrotation Yrotation
      JOINT lShin
      {
        OFFSET 0 -36.8199 0.73152
        CHANNELS 3 Zrotation Xrotation Yrotation
        JOINT lFoot
        {
          OFFSET -0.73152 -45.1104 -5.12064
          CHANNELS 3 Zrotation Xrotation Yrotation
          End Site
          {
            OFFSET 1.1221 -3.69964 12.103
          }
        }
      }
    }
  }
}
MOTION
Frames:	6
Frame Time:	0.00833333
37.1362 60.0823 143.935 -8.8445 -38.9838 5.9792 -9.05849 12.0464 13.3521 -10.8944 1.71643 3.39393 -6.96638 16.292 -5.50551 27.6551 -10.1887 -8.6991 -0.0 0.0 0.0 -0.0 0.0 0.0 -2.03082e-13 -2.12866e-13 -4.6273e-13 -28.2026 -56.5445 40.3809 -19.0121 -11.7543 37.0006 -0.0482193 -10.4272 -1.4718 -1.28661e-09 7.86308e-10 -1.53176e-09 -2.20083e-09 1.32525e-09 -2.68302e-09 -1.28661e-09 7.8632e-10 -1.53177e-09 7.73091 5.47488 0.417314 -1.28661e-09 7.86304e-10 -1.53176e-09 2.90554 0.965183 0.102902 -1.28661e-09 7.86316e-10 -1.53176e-09 10.2786 0.731801 0.0259123 -1.28662e-09 7.86318e-10 -1.53174e-09 2.22167 -0.733487 -0.20892 -2.03279e-13 -2.12833e-13 -4.62923e-13 46.9296 -21.8666 -16.537 28.1024 -39.9855 -83.7999 6.07403 -55.0447 11.6097 9.59907e-10 -6.18046e-10 2.61749e-10 1.64565e-09 -1.04092e-09 4.79519e-10 9.59902e-10 -6.18042e-10 2.61766e-10 -7.73091 5.47488 -0.417314 9.59907e-10 -6.18045e-10 2.61751e-10 -2.90554 0.965183 -0.102902 9.59897e-10 -6.18045e-10 2.61749e-10 -10.2786 0.731801 -0.0259123 9.59909e-10 -6.18046e-10 2.61742e-10 -2.22167 -0.733487 0.20892 -2.03217e-16 0.0 -3.88251e-19 -35.2431 -13.4063 -24.6832 -1.30042 64.4356 2.17137 -6.7861 -17.9497 -15.9259 2.03217e-16 0.0 3.88251e-19 59.0387 -47.2196 40.4455 0.770693 53.4564 -0.906144 -0.140904 10.5969 -10.1637
37.3466 59.8609 143.791 -8.5571 -39.3505 5.6102 -8.62713 12.6063 14.2134 -10.644 1.96166 3.65769 -7.2262 16.556 -5.86366 27.5869 -11.009 -9.20463 -0.0 0.0 0.0 -0.0 0.0 0.0 -1.52923e-13 -1.57846e-13 -6.30467e-13 -29.7022 -54.656 40.2604 -17.0027 -9.65074 32.2725 0.109882 -4.25387 -0.587856 -8.43236e-11 -8.94818e-10 -9.59455e-10 -1.30099e-10 -1.5799e-09 -1.6899e-09 -8.43204e-11 -8.94811e-10 -9.59462e-10 7.73091 5.47488 0.417314 -8.43232e-11 -8.94826e-10 -9.59454e-10 2.90554 0.965183 0.102902 -8.43184e-11 -8.94816e-10 -9.59453e-10 10.2786 0.731801 0.0259123 -8.43294e-11 -8.94815e-10 -9.59439e-10 2.22167 -0.733487 -0.20892 -1.53039e-13 -1.57825e-13 -6.30647e-13 47.3168 -23.0778 -14.4617 28.2404 -39.0746 -82.191 5.78734 -54.1592 11.2472 2.29602e-09 -1.56391e-09 5.67876e-10 3.93261e-09 -2.69939e-09 1.05875e-09 2.29602e-09 -1.5639e-09 5.67891e-10 -7.73091 5.47488 -0.417314 2.29602e-09 -1.56391e-09 5.67878e-10 -2.90554 0.965183 -0.102902 2.29601e-09 -1.5639e-09 5.67875e-10 -10.2786 0.731801 -0.0259123 2.29602e-09 -1.5639e-09 5.67867e-10 -2.22167 -0.733487 0.20892 -2.03217e-16 0.0 -3.88251e-19 -36.0994 -13.9686 -25.0972 -1.376 65.3191 2.25815 -6.68189 -17.8731 -15.7336 2.03217e-16 0.0 3.88251e-19 59.1888 -47.0971 40.8324 0.78121 53.7915 -0.940659 -0.135785 10.657 -10.2266
37.5558 59.6302 143.64 -8.2862 -39.706 5.2207 -8.18619 13.2237 14.9602 -10.3994 2.18295 3.88501 -7.44186 16.7683 -6.17527 27.4589 -11.8188 -9.63198 -0.0 0.0 0.0 -0.0 0.0 0.0 -8.15476e-14 -8.11572e-14 -7.85087e-13 -31.6158 -52.2783 39.6422 -15.3471 -8.15121 28.329 0.0791473 2.23851 0.318755 1.03524e-09 -2.12305e-09 -2.41982e-10 1.79773e-09 -3.70203e-09 -4.42556e-10 1.03524e-09 -2.12305e-09 -2.41986e-10 7.73091 5.47488 0.417314 1.03524e-09 -2.12307e-09 -2.41979e-10 2.90554 0.965183 0.102902 1.03525e-09 -2.12306e-09 -2.4198e-10 10.2786 0.731801 0.0259123 1.03523e-09 -2.12306e-09 -2.4197e-10 2.22167 -0.733487 -0.20892 -8.15742e-14 -8.11499e-14 -7.8525e-13 47.8201 -24.3886 -12.405 28.343 -37.9537 -80.3205 5.28569 -52.6052 10.6217 3.486e-09 -2.47372e-09 9.29818e-10 5.96735e-09 -4.29436e-09 1.72852e-09 3.486e-09 -2.47372e-09 9.2983e-10 -7.73091 5.47488 -0.417314 3.486e-09 -2.47372e-09 9.29819e-10 -2.90554 0.965183 -0.102902 3.48599e-09 -2.47372e-09 9.29816e-10 -10.2786 0.731801 -0.0259123 3.486e-09 -2.47372e-09 9.29807e-10 -2.22167 -0.733487 0.20892 -2.03217e-16 0.0 -3.88251e-19 -36.9587 -14.499 -25.5393 -1.45793 66.2064 2.35136 -6.57763 -17.8099 -15.5333 2.03217e-16 0.0 3.88251e-19 59.3264 -46.9558 41.1696 0.791869 54.1225 -0.975401 -0.132717 10.7044 -10.2832
37.7696 59.404 143.501 -8.0164 -40.0017 4.7987 -7.79399 13.8751 15.4984 -10.1917 2.32446 4.04426 -7.56898 16.9843 -6.41342 27.1541 -12.6269 -9.94065 -0.0 0.0 0.0 -0.0 0.0 0.0 -9.57978e-15 -6.36053e-15 -8.80964e-13 -33.7423 -49.1289 38.6311 -14.2823 -7.18454 26.1238 -0.0641215 7.2065 1.01824 1.4933e-09 -1.54836e-09 4.28777e-10 2.58732e-09 -2.70976e-09 7.26455e-10 1.4933e-09 -1.54836e-09 4.28774e-10 7.73091 5.47488 0.417314 1.4933e-09 -1.54837e-09 4.2878e-10 2.90554 0.965183 0.102902 1.4933e-09 -1.54837e-09 4.28779e-10 10.2786 0.731801 0.0259123 1.49329e-09 -1.54836e-09 4.28786e-10 2.22167 -0.733487 -0.20892 -9.55387e-15 -6.36072e-15 -8.81113e-13 48.4986 -25.7609 -10.3987 28.4072 -36.8623 -78.462 4.59647 -50.3448 9.76178 4.04051e-09 -3.03111e-09 1.34593e-09 6.9102e-09 -5.26728e-09 2.46633e-09 4.04051e-09 -3.03111e-09 1.34594e-09 -7.73091 5.47488 -0.417314 4.04051e-09 -3.03111e-09 1.34593e-09 -2.90554 0.965183 -0.102902 4.04049e-09 -3.03111e-09 1.34592e-09 -10.2786 0.731801 -0.0259123 4.04051e-09 -3.0311e-09 1.34592e-09 -2.22167 -0.733487 0.20892 -2.03217e-16 0.0 -3.88251e-19 -37.8761 -14.995 -26.0053 -1.54349 67.0648 2.44794 -6.46034 -17.7534 -15.3021 2.03217e-16 0.0 3.88251e-19 59.3734 -46.842 41.4361 0.801593 54.422 -1.00808 -0.133238 10.7371 -10.3256
37.9981 59.181 143.366 -7.7053 -40.2527 4.3212 -7.44426 14.5831 15.7825 -10.0196 2.37812 4.12156 -7.56796 17.2371 -6.58269 26.6578 -13.4577 -10.1351 -0.0 0.0 0.0 -0.0 0.0 0.0 7.60979e-14 7.57367e-14 -9.14078e-13 -36.2113 -44.8179 37.1461 -14.1308 -6.94046 26.1463 -0.189605 10.6829 1.51929 7.88943e-10 2.61285e-09 1.15065e-09 1.37692e-09 4.47343e-09 1.9895e-09 7.88948e-10 2.61285e-09 1.15065e-09 7.73091 5.47488 0.417314 7.88943e-10 2.61284e-09 1.15065e-09 2.90554 0.965183 0.102902 7.88951e-10 2.61284e-09 1.15065e-09 10.2786 0.731801 0.0259123 7.88936e-10 2.61285e-09 1.15066e-09 2.22167 -0.733487 -0.20892 7.61218e-14 7.5738e-14 -9.14211e-13 49.4662 -27.108 -8.37343 28.4604 -35.7702 -76.4608 3.88481 -47.4648 8.80341 3.61665e-09 -3.18434e-09 1.99796e-09 6.16932e-09 -5.52051e-09 3.57183e-09 3.61665e-09 -3.18434e-09 1.99797e-09 -7.73091 5.47488 -0.417314 3.61666e-09 -3.18434e-09 1.99796e-09 -2.90554 0.965183 -0.102902 3.61664e-09 -3.18434e-09 1.99795e-09 -10.2786 0.731801 -0.0259123 3.61665e-09 -3.18434e-09 1.99794e-09 -2.22167 -0.733487 0.20892 -2.03217e-16 0.0 -3.88251e-19 -38.8667 -15.3952 -26.5374 -1.6308 67.8786 2.5461 -6.33358 -17.7119 -15.0445 2.03217e-16 0.0 3.88251e-19 59.2749 -46.7969 41.5687 0.809915 54.6769 -1.03668 -0.135983 10.7619 -10.3573
38.2555 58.9524 143.218 -7.3532 -40.452 3.8169 -7.10256 15.3552 15.8682 -9.86864 2.37155 4.13552 -7.4733 17.4915 -6.69308 26.0347 -14.3009 -10.2306 -0.0 0.0 0.0 -0.0 0.0 0.0 1.80279e-13 1.72541e-13 -9.06045e-13 -38.7411 -39.5667 35.6153 -14.8704 -7.53361 27.7542 -0.294809 13.4744 1.93265 -6.53617e-10 9.16603e-09 1.97631e-09 -1.10385e-09 1.57859e-08 3.43692e-09 -6.53611e-10 9.16603e-09 1.97631e-09 7.73091 5.47488 0.417314 -6.53618e-10 9.16602e-09 1.97631e-09 2.90554 0.965183 0.102902 -6.53609e-10 9.16603e-09 1.97632e-09 10.2786 0.731801 0.0259123 -6.53624e-10 9.16603e-09 1.97633e-09 2.22167 -0.733487 -0.20892 1.80272e-13 1.72549e-13 -9.0616e-13 50.6688 -28.4711 -6.32979 28.4541 -34.5264 -74.2976 3.20634 -43.9423 7.79871 2.54622e-09 -3.09128e-09 2.82606e-09 4.31517e-09 -5.33487e-09 4.95512e-09 2.54622e-09 -3.09128e-09 2.82606e-09 -7.73091 5.47488 -0.417314 2.54622e-09 -3.09128e-09 2.82605e-09 -2.90554 0.965183 -0.102902 2.54621e-09 -3.09128e-09 2.82605e-09 -10.2786 0.731801 -0.0259123 2.54622e-09 -3.09127e-09 2.82604e-09 -2.22167 -0.733487 0.20892 -2.03217e-16 0.0 -3.88251e-19 -39.9002 -15.7206 -27.122 -1.72189 68.6676 2.64801 -6.20172 -17.6855 -14.7692 2.03217e-16 0.0 3.88251e-19 59.0848 -46.7872 41.5989 0.817246 54.9038 -1.06271 -0.140795 10.7772 -10.3807
